<svg width="25" height="24" viewBox="0 0 25 24" fill="none" xmlns="http://www.w3.org/2000/svg">
<g clip-path="url(#clip0_4001_337757)">
<path d="M12.3877 6.67578L16.1 2.96343H23.5247L16.1 10.3881L12.3877 6.67578Z" fill="url(#paint0_linear_4001_337757)"/>
<path d="M12.3877 6.67578L8.67535 2.96343H1.25065L8.67535 10.3881L12.3877 6.67578Z" fill="url(#paint1_linear_4001_337757)"/>
<circle cx="12.5006" cy="13.5001" r="9.00009" fill="url(#paint2_linear_4001_337757)"/>
<circle cx="12.5006" cy="13.5001" r="7.12507" fill="url(#paint3_linear_4001_337757)" stroke="url(#paint4_linear_4001_337757)" stroke-width="0.750008"/>
<path d="M10.2505 18.0008H15.3265V16.5293H11.911C11.911 14.7877 15.2725 13.2622 15.2725 10.7782C15.2725 9.59018 14.4625 8.38867 12.775 8.38867C11.3035 8.38867 10.4125 9.32018 10.3315 11.0212H11.8435C11.8705 10.2922 12.2215 9.88719 12.7885 9.88719C13.4095 9.88719 13.693 10.3462 13.693 10.8457C13.693 12.6007 10.2505 13.9237 10.2505 16.9748V18.0008Z" fill="white"/>
</g>
<defs>
<linearGradient id="paint0_linear_4001_337757" x1="19.1378" y1="3.00045" x2="16.8877" y2="7.12549" gradientUnits="userSpaceOnUse">
<stop stop-color="#A7D3FA"/>
<stop offset="1" stop-color="#8BC7FD"/>
</linearGradient>
<linearGradient id="paint1_linear_4001_337757" x1="5.63763" y1="3.00045" x2="7.88765" y2="7.12549" gradientUnits="userSpaceOnUse">
<stop stop-color="#A7D3FA"/>
<stop offset="1" stop-color="#8BC7FD"/>
</linearGradient>
<linearGradient id="paint2_linear_4001_337757" x1="12.5006" y1="4.5" x2="12.5006" y2="22.5002" gradientUnits="userSpaceOnUse">
<stop stop-color="#C5DDF2"/>
<stop offset="1" stop-color="#ACD0F0"/>
</linearGradient>
<linearGradient id="paint3_linear_4001_337757" x1="12.5006" y1="6" x2="12.5006" y2="21.0002" gradientUnits="userSpaceOnUse">
<stop stop-color="#99C8F2"/>
<stop offset="0.98" stop-color="#7EB5E7"/>
</linearGradient>
<linearGradient id="paint4_linear_4001_337757" x1="12.5006" y1="6" x2="12.5006" y2="21.0002" gradientUnits="userSpaceOnUse">
<stop stop-color="#A1C7EA"/>
<stop offset="1" stop-color="#CBE6FE"/>
</linearGradient>
<clipPath id="clip0_4001_337757">
<rect width="24.0002" height="24.0002" fill="white" transform="translate(0.500488)"/>
</clipPath>
</defs>
</svg>
